<?xml version="1.0" standalone="no"?>
<!DOCTYPE svg PUBLIC "-//W3C//DTD SVG 20010904//EN"
 "http://www.w3.org/TR/2001/REC-SVG-20010904/DTD/svg10.dtd">
<svg version="1.0" xmlns="http://www.w3.org/2000/svg"
 width="500.000000pt" height="500.000000pt" viewBox="0 0 500.000000 500.000000"
 preserveAspectRatio="xMidYMid meet">
<metadata>
Created by potrace 1.11, written by Peter Selinger 2001-2013
</metadata>
<g transform="translate(0.000000,500.000000) scale(0.100000,-0.100000)"
fill="#000000" stroke="none">
<path d="M2397 4855 c-1 -2 -40 -5 -87 -9 -93 -7 -130 -12 -205 -27 -27 -5
-66 -12 -85 -15 -19 -4 -43 -10 -52 -15 -10 -5 -18 -8 -18 -6 0 3 -37 -6 -82
-20 -46 -13 -88 -25 -95 -26 -7 -2 -16 -6 -19 -10 -4 -4 -14 -7 -22 -7 -8 0
-28 -6 -45 -14 -18 -8 -61 -27 -97 -41 -85 -35 -276 -135 -301 -158 -10 -10
-19 -15 -19 -12 0 6 -160 -102 -170 -115 -3 -3 -20 -17 -39 -30 -53 -37 -95
-75 -218 -198 -62 -62 -113 -118 -113 -123 0 -6 -5 -7 -12 -3 -6 4 -8 3 -5 -2
3 -6 -12 -28 -33 -51 -21 -23 -36 -44 -33 -47 3 -3 -2 -8 -11 -12 -9 -3 -16
-13 -16 -20 0 -8 -7 -17 -15 -20 -8 -4 -15 -11 -15 -17 0 -5 -11 -25 -25 -43
-14 -18 -25 -37 -25 -43 0 -6 -4 -11 -10 -11 -5 0 -10 -7 -10 -15 0 -8 -3 -15
-7 -15 -5 0 -13 -10 -19 -23 -6 -12 -37 -71 -69 -132 -32 -60 -58 -111 -57
-113 1 -1 -4 -15 -12 -30 -14 -28 -95 -255 -101 -282 -2 -8 -9 -35 -16 -60 -6
-25 -13 -52 -14 -60 -2 -8 -8 -37 -14 -64 -7 -27 -14 -70 -17 -95 -3 -25 -7
-48 -9 -51 -21 -33 -24 -610 -4 -610 4 0 7 -10 7 -22 -1 -51 49 -284 85 -393
2 -5 11 -32 19 -60 9 -27 24 -68 33 -90 21 -49 37 -89 36 -92 -1 -2 15 -32 34
-68 19 -36 31 -65 28 -65 -3 0 1 -8 9 -17 8 -10 28 -43 44 -73 16 -30 31 -57
34 -60 3 -3 22 -32 44 -65 44 -68 113 -163 136 -185 8 -8 27 -31 41 -50 42
-55 269 -280 284 -280 3 0 16 -10 29 -22 13 -13 33 -30 46 -38 12 -8 28 -20
34 -26 6 -6 45 -32 86 -59 41 -27 78 -54 82 -60 5 -6 8 -6 8 0 0 7 3 6 8 0 4
-6 41 -27 82 -48 41 -21 79 -42 85 -46 13 -10 227 -101 246 -105 8 -2 23 -6
34 -10 66 -25 91 -34 98 -35 4 -1 8 -1 10 -2 4 -1 32 -8 55 -13 12 -3 27 -8
33 -11 6 -4 23 -8 37 -10 15 -2 38 -6 52 -9 14 -4 39 -8 55 -10 17 -2 37 -6
45 -10 8 -3 40 -8 70 -11 30 -3 80 -8 110 -11 166 -17 441 -3 630 31 103 19
216 48 229 59 8 6 17 10 20 9 20 -9 284 92 377 143 23 13 61 34 85 46 75 41
143 82 157 95 8 8 28 21 45 30 18 9 34 19 37 22 3 3 48 40 100 82 97 78 236
211 302 290 20 24 45 55 57 69 11 14 25 30 31 37 5 7 10 17 10 23 0 5 4 10 8
10 9 0 82 106 82 120 0 6 4 10 9 10 5 0 16 15 25 33 9 17 26 47 37 65 23 40
98 181 99 187 0 3 9 25 20 51 11 25 20 49 20 52 1 4 9 25 20 47 10 22 16 43
14 47 -3 5 0 8 5 8 6 0 10 3 9 8 -2 6 14 61 29 102 6 15 10 32 16 68 2 9 9 33
15 52 10 31 15 54 27 125 2 11 6 31 9 45 26 124 39 456 22 585 -3 28 -8 73
-11 100 -3 28 -7 61 -10 75 -3 14 -8 41 -11 60 -8 56 -61 248 -89 330 -15 41
-29 85 -32 98 -3 12 -9 22 -14 22 -5 0 -9 7 -9 15 0 20 -80 188 -94 197 -6 4
-8 8 -3 8 4 0 -3 17 -16 38 -12 20 -29 49 -36 65 -8 15 -18 27 -23 27 -4 0 -8
9 -8 19 0 11 -4 21 -8 23 -5 2 -28 32 -52 68 -24 36 -50 73 -59 82 -9 9 -20
23 -26 30 -77 103 -264 293 -360 366 -33 26 -61 50 -63 54 -2 4 -10 8 -17 8
-7 0 -15 4 -17 8 -7 18 -202 142 -288 183 -25 12 -48 26 -51 31 -3 5 -10 10
-15 10 -5 0 -29 9 -52 20 -76 34 -196 81 -209 81 -7 0 -13 4 -13 9 0 5 -4 7
-8 4 -5 -3 -20 1 -35 9 -14 7 -28 11 -31 8 -3 -3 -12 0 -21 7 -8 7 -15 10 -15
6 0 -3 -12 -1 -27 5 -24 10 -42 14 -98 23 -5 1 -14 4 -20 8 -9 5 -62 14 -130
23 -11 2 -36 5 -55 8 -100 16 -148 20 -288 21 -84 2 -153 2 -155 1z"/>
</g>
</svg>
